<?xml version="1.0" standalone="no"?>
<!DOCTYPE svg PUBLIC "-//W3C//DTD SVG 20010904//EN"
 "http://www.w3.org/TR/2001/REC-SVG-20010904/DTD/svg10.dtd">
<svg version="1.0" xmlns="http://www.w3.org/2000/svg"
 width="200.000000pt" height="52.000000pt" viewBox="0 0 200.000000 52.000000"
 preserveAspectRatio="xMidYMid meet">

<g transform="translate(0.000000,52.000000) scale(0.100000,-0.100000)"
fill="#000000" stroke="none">
<path d="M560 474 c-36 -7 -76 -18 -90 -25 -14 -6 -49 -15 -79 -20 -80 -13
-161 -85 -161 -145 0 -11 -14 -33 -31 -50 -36 -34 -59 -74 -59 -103 0 -56 167
-32 325 47 83 41 107 59 146 108 47 60 32 124 -29 124 l-27 -1 28 -20 c42 -32
37 -73 -16 -123 -83 -80 -283 -155 -342 -128 -28 13 -32 38 -11 65 13 16 14
16 20 -8 4 -14 17 -31 31 -37 51 -23 257 71 301 137 21 32 10 63 -35 96 -17
13 -31 26 -31 30 0 12 91 17 127 7 51 -14 61 -45 33 -102 -31 -65 -108 -129
-229 -189 l-104 -52 -98 0 c-58 0 -102 4 -109 11 -18 18 -1 62 45 119 43 52
64 95 47 95 -18 0 -146 -136 -163 -175 -25 -55 -24 -62 14 -85 40 -25 137 -27
217 -4 30 8 82 15 116 14 34 0 74 4 90 10 38 15 81 56 104 101 10 19 37 52 59
72 126 113 147 210 53 237 -46 12 -61 12 -142 -6z"/>
<path d="M935 326 c-22 -16 -26 -96 -5 -120 17 -22 57 -20 70 3 17 32 12 96
-8 114 -22 21 -33 21 -57 3z m65 -66 c0 -26 -22 -60 -39 -60 -33 0 -45 101
-13 119 22 14 52 -20 52 -59z"/>
<path d="M1052 263 c1 -75 1 -76 7 -23 l6 55 29 -52 c16 -29 33 -53 38 -53 4
0 8 32 8 70 0 78 -17 96 -22 23 l-3 -48 -28 53 c-15 28 -30 52 -32 52 -3 0 -4
-35 -3 -77z"/>
<path d="M1186 318 c-29 -41 -17 -115 20 -124 24 -6 54 10 54 29 0 5 -8 3 -19
-7 -10 -9 -25 -14 -33 -11 -31 12 -30 100 1 119 6 4 19 -2 31 -14 13 -13 20
-15 20 -7 0 38 -51 49 -74 15z"/>
<path d="M1306 318 c-30 -42 -17 -115 22 -125 37 -9 66 29 59 80 -9 66 -50 89
-81 45z m64 -52 c0 -69 -51 -89 -64 -25 -10 51 15 95 45 78 14 -7 19 -21 19
-53z"/>
<path d="M1426 333 c-11 -12 -7 -143 5 -143 8 0 10 15 7 45 -7 55 6 59 22 8
18 -56 26 -59 40 -16 20 60 25 61 31 8 5 -45 6 -42 7 28 2 87 -9 94 -31 20 -8
-26 -19 -49 -24 -50 -6 -2 -16 19 -23 47 -12 50 -22 65 -34 53z"/>
<path d="M1646 327 c-13 -10 -17 -24 -14 -66 3 -61 19 -78 61 -67 22 5 27 12
27 36 0 24 -4 30 -22 30 -21 0 -21 0 -2 -14 18 -14 18 -16 1 -33 -27 -28 -51
-6 -55 50 -2 37 1 48 17 56 15 9 23 7 36 -5 9 -9 18 -14 21 -11 7 7 -25 37
-40 37 -7 0 -20 -6 -30 -13z"/>
<path d="M1762 263 c0 -43 3 -63 5 -45 3 25 9 32 27 32 28 0 46 18 46 47 0 24
-26 43 -59 43 -20 0 -21 -5 -19 -77z m52 51 c19 -19 20 -26 4 -42 -23 -23 -48
-14 -48 16 0 44 17 54 44 26z"/>
<path d="M1882 328 c-20 -20 -14 -47 16 -65 38 -24 44 -36 27 -52 -12 -13 -17
-12 -35 4 -11 10 -20 13 -20 8 0 -20 30 -35 55 -29 37 9 34 52 -5 74 -16 9
-32 23 -35 30 -7 18 24 27 46 13 11 -6 19 -8 19 -3 0 13 -23 32 -40 32 -9 0
-21 -5 -28 -12z"/>
</g>
</svg>
