<?xml version="1.0"?>
<svg version="1.1" xmlns="http://www.w3.org/2000/svg" width="400" height="200" style=""><path fill="#c7325c" d="M34.62,105.7c0,6.78-3.87,10.86-9.24,10.86c-5.73,0-9.03-4.17-9.03-10.68c0-6.45,3.6-10.83,9.24-10.83c5.94,0,9.03,4.5,9.03,10.65z M30.48,105.79c0-5.04-1.77-7.47-4.98-7.47c-3,0-5.01,2.79-5.01,7.47c0,4.98,1.83,7.5,5.01,7.5c2.97,0,4.98-2.61,4.98-7.5z M57.285,115.39c0,0.66-0.27,0.81-0.72,0.81l-2.01,0c-0.45,0-0.84-0.21-1.14-0.63l-9.78-13.38l-0.06,0l0,13.23c0,0.57-0.27,0.78-0.78,0.78l-2.16,0c-0.57,0-0.81-0.15-0.81-0.75l0-19.2c0-0.63,0.27-0.81,0.81-0.81l1.95,0c0.48,0,0.72,0.15,1.02,0.57l9.87,13.56l0.06,0l0-13.35c0-0.57,0.27-0.78,0.78-0.78l2.25,0c0.63,0,0.72,0.33,0.72,0.81l0,19.14z M78.42,114.73c0,0.27-0.12,0.45-0.48,0.6c-1.98,0.81-3.78,1.23-5.97,1.23c-6.33,0-9.42-4.47-9.42-10.65c0-6.15,3.69-10.86,9.72-10.86c2.07,0,3.93,0.42,5.64,1.26c0.36,0.18,0.48,0.33,0.48,0.51c0,0.12-0.03,0.24-0.09,0.39l-0.69,1.89c-0.09,0.27-0.24,0.39-0.42,0.39c-0.09,0-0.21-0.06-0.33-0.12c-1.5-0.78-2.85-1.08-4.35-1.08c-4.17,0-5.79,3.84-5.79,7.47c0,4.62,2.16,7.56,5.85,7.56c1.44,0,2.91-0.33,4.32-0.96c0.15-0.06,0.27-0.12,0.36-0.12c0.21,0,0.36,0.15,0.48,0.45l0.6,1.62c0.06,0.15,0.09,0.3,0.09,0.42z M100.515,105.7c0,6.78-3.87,10.86-9.24,10.86c-5.73,0-9.03-4.17-9.03-10.68c0-6.45,3.6-10.83,9.24-10.83c5.94,0,9.03,4.5,9.03,10.65z M96.375,105.79c0-5.04-1.77-7.47-4.98-7.47c-3,0-5.01,2.79-5.01,7.47c0,4.98,1.83,7.5,5.01,7.5c2.97,0,4.98-2.61,4.98-7.5z M127.59,115.39c0.03,0.51-0.12,0.81-0.69,0.81l-2.43,0c-0.63,0-0.75-0.3-0.78-0.99l-0.42-12.18l-0.06,0l-5.1,12.63c-0.18,0.48-0.48,0.54-0.81,0.54l-1.05,0c-0.45,0-0.72-0.09-0.93-0.57l-5.67-12.6l-0.06,0l-0.27,12.42c0,0.66-0.27,0.75-0.81,0.75l-2.04,0c-0.57,0-0.81-0.21-0.78-0.78l0.75-19.17c0.03-0.63,0.24-0.81,0.72-0.81l1.77,0c0.6,0,0.81,0.21,1.02,0.66l6.93,14.82l0.06,0l6.33-14.82c0.18-0.45,0.42-0.66,0.96-0.66l1.77,0c0.48,0,0.66,0.18,0.69,0.66z M159.06,114.04c0,0.6-0.15,0.84-0.72,1.14c-1.65,0.84-4.44,1.38-6.72,1.38c-6.24,0-9.78-4.32-9.78-10.68c0-6.27,4.05-10.83,10.17-10.83c1.92,0,3.69,0.33,5.49,1.14c0.33,0.15,0.42,0.33,0.42,0.54c0,0.12-0.06,0.24-0.09,0.36l-0.69,1.8c-0.12,0.3-0.24,0.42-0.45,0.42c-0.12,0-0.27-0.06-0.42-0.12c-0.99-0.42-2.7-0.87-4.08-0.87c-1.62,0-3.18,0.6-4.23,1.71c-1.26,1.32-1.98,3.27-1.98,5.73c0,4.65,2.19,7.56,5.79,7.56c1.23,0,2.58-0.18,3.39-0.51l0-5.73l-2.67,0c-0.42,0-0.66-0.15-0.66-0.66l0-1.83c0-0.48,0.24-0.6,0.69-0.6l5.82,0c0.51,0,0.72,0.15,0.72,0.69l0,9.36z M178.485,101.98c0,4.65-3.51,6.93-7.92,6.93c-0.24,0-1.59-0.06-1.8-0.09l0,6.66c0,0.45-0.18,0.72-0.75,0.72l-2.4,0c-0.48,0-0.72-0.21-0.72-0.81l0-19.14c0-0.6,0.18-0.81,0.75-0.81l4.35,0c3.18,0,5.52,0.6,6.99,2.28c0.96,1.11,1.5,2.64,1.5,4.26z M174.585,102.13c0-2.73-1.68-3.69-4.26-3.69l-1.56,0l0,7.44c0.24,0,1.59,0.03,1.77,0.03c2.55,0,4.05-1.2,4.05-3.78z M196.17,110.14c0,4.17-3.39,6.42-7.29,6.42c-1.8,0-3.93-0.33-5.73-0.96c-0.39-0.15-0.51-0.33-0.51-0.57c0-0.12,0-0.24,0.06-0.39l0.63-1.95c0.09-0.3,0.24-0.48,0.54-0.48c0.12,0,0.27,0.03,0.45,0.09c1.41,0.51,2.97,0.9,4.47,0.9c1.62,0,3.45-0.78,3.45-2.67c0-1.38-1.02-2.13-2.19-2.7l-3.9-1.95c-2.13-1.05-3.54-2.82-3.54-5.16c0-3.66,3.6-5.67,6.93-5.67c1.98,0,3.63,0.3,5.37,1.05c0.39,0.18,0.6,0.36,0.6,0.6c0,0.12-0.03,0.24-0.09,0.39l-0.72,1.83c-0.12,0.33-0.3,0.45-0.51,0.45c-0.15,0-0.3-0.06-0.48-0.12c-1.23-0.51-2.76-0.93-3.96-0.93c-1.41,0-3.03,0.6-3.03,2.28c0,1.23,1.14,1.95,2.13,2.43l3.33,1.62c2.37,1.14,3.99,2.73,3.99,5.49z"/><path fill="#" d=""/></svg>
